<?xml version="1.0" encoding="utf-8"?>
<!-- Generator: Adobe Illustrator 27.2.0, SVG Export Plug-In . SVG Version: 6.00 Build 0)  -->
<svg version="1.1" id="Layer_1" xmlns="http://www.w3.org/2000/svg" xmlns:xlink="http://www.w3.org/1999/xlink" x="0px" y="0px"
	 viewBox="0 0 255 160" style="enable-background:new 0 0 255 160;" xml:space="preserve">
<style type="text/css">
	.st0{fill:#1A246F;}
</style>
<g>
	<path class="st0" d="M250.07,71.99c0-22.24-18.2-40.44-40.44-40.44h0c-22.24,0-40.44,18.2-40.44,40.44v0v59.09
		C169.19,131.08,250.06,122.08,250.07,71.99C250.07,72,250.07,71.99,250.07,71.99L250.07,71.99z"/>
	<g>
		<path class="st0" d="M48.37,56.86h-2.29c-7.06,0-12.83-5.77-12.83-12.83v-2.29c0-7.06,5.77-12.83,12.83-12.83h2.29
			c7.06,0,12.83,5.77,12.83,12.83v2.29C61.2,51.09,55.43,56.86,48.37,56.86z"/>
		<path class="st0" d="M4.93,102.94C4.93,102.95,4.93,102.95,4.93,102.94L4.93,102.94c0,15.48,12.66,28.14,28.13,28.14h0
			c15.47,0,28.13-12.66,28.13-28.13v0V61.84C61.2,61.84,4.94,68.1,4.93,102.94z M33.07,110.34c-4.07,0-7.39-3.33-7.39-7.39
			s3.33-7.39,7.39-7.39s7.39,3.33,7.39,7.39S37.13,110.34,33.07,110.34z"/>
	</g>
	<g>
		<path class="st0" d="M96.22,131.08H73.05l4.25-69.25h28.9l8.59,35.27h0.83l8.58-35.27h28.99l4.16,69.25h-23.17l-1.29-33.61h-0.74
			l-8.49,33.61h-16.89l-8.59-33.61h-0.65L96.22,131.08z"/>
	</g>
</g>
</svg>
