<?xml version="1.0" encoding="utf-8"?>
<!-- Generator: Adobe Illustrator 27.2.0, SVG Export Plug-In . SVG Version: 6.00 Build 0)  -->
<svg version="1.1" id="Layer_1" xmlns="http://www.w3.org/2000/svg" xmlns:xlink="http://www.w3.org/1999/xlink" x="0px" y="0px"
	 viewBox="0 0 255 160" style="enable-background:new 0 0 255 160;" xml:space="preserve">
<style type="text/css">
	.st0{fill:#1A246F;}
</style>
<g>
	<g>
		<g>
			<polygon class="st0" points="118.31,30.74 134.02,30.74 134.02,6.82 33.39,6.82 33.39,107.44 134.02,107.44 134.02,74.85 
				118.31,74.85 			"/>
			<rect x="143.14" y="30.74" class="st0" width="28.4" height="44.11"/>
		</g>
		<path class="st0" d="M33.39,117.79v35.39h35.39v-35.39H33.39z M59.82,144.21H42.37l17.45-17.45V144.21z"/>
	</g>
	<g>
		<path class="st0" d="M90.31,153.18v-24.83h15.44c0.88,0,1.7,0.19,2.47,0.58c0.77,0.38,1.45,0.92,2.03,1.59
			c0.58,0.68,1.05,1.48,1.39,2.41s0.52,1.92,0.52,2.98c0,0.96-0.17,1.87-0.5,2.75c-0.33,0.88-0.79,1.65-1.37,2.33
			c-0.58,0.68-1.25,1.21-2.01,1.61c-0.76,0.4-1.57,0.6-2.45,0.6h-4.54v-3.54h4.06c0.5,0,0.94-0.12,1.31-0.36
			c0.37-0.24,0.68-0.54,0.92-0.92c0.24-0.37,0.41-0.78,0.52-1.23c0.11-0.45,0.16-0.88,0.16-1.27c0-0.42-0.07-0.87-0.22-1.33
			c-0.15-0.46-0.35-0.9-0.6-1.29c-0.25-0.4-0.56-0.72-0.94-0.98c-0.37-0.25-0.8-0.38-1.27-0.38H94.05v21.29H90.31z"/>
		<path class="st0" d="M116.98,153.18v-24.83h3.74v24.83H116.98z M136.12,153.18v-9.99h-13.05v-3.54h13.05v-11.3h3.82v24.83H136.12z
			"/>
		<path class="st0" d="M148.3,140.85c0,0.85,0.14,1.68,0.42,2.51s0.67,1.61,1.17,2.35c0.5,0.74,1.11,1.41,1.81,2.01
			c0.7,0.6,1.49,1.09,2.37,1.49l-2.39,2.98c-1.06-0.56-2.03-1.24-2.91-2.05c-0.88-0.81-1.62-1.7-2.23-2.69s-1.09-2.04-1.43-3.16
			c-0.35-1.13-0.52-2.29-0.52-3.48c0-1.72,0.32-3.35,0.97-4.88c0.65-1.52,1.54-2.85,2.67-3.98c1.13-1.13,2.46-2.02,4-2.69
			c1.54-0.66,3.2-0.99,4.97-0.99c1.75,0,3.4,0.33,4.93,0.99c1.54,0.66,2.87,1.56,4,2.69c1.13,1.13,2.02,2.46,2.69,3.98
			c0.66,1.53,0.99,3.15,0.99,4.88c0,1.19-0.18,2.36-0.54,3.5c-0.36,1.14-0.87,2.2-1.53,3.18c-0.66,0.98-1.45,1.87-2.35,2.67
			c-0.9,0.8-1.91,1.47-3.02,2.03l-2.03-3.06c0.82-0.4,1.59-0.9,2.31-1.49c0.72-0.6,1.33-1.25,1.85-1.97
			c0.52-0.72,0.92-1.49,1.21-2.31s0.44-1.66,0.44-2.51c0-1.19-0.24-2.32-0.72-3.38c-0.48-1.06-1.13-2-1.95-2.83
			c-0.82-0.82-1.77-1.47-2.85-1.95s-2.21-0.72-3.4-0.72c-1.22,0-2.37,0.24-3.46,0.72s-2.04,1.13-2.85,1.95s-1.45,1.76-1.93,2.83
			C148.54,138.52,148.3,139.65,148.3,140.85z"/>
		<path class="st0" d="M178.19,132.93v20.26h-3.74v-24.83h5.25l14.09,20.18v-20.18h3.82v24.83h-5.05L178.19,132.93z"/>
		<path class="st0" d="M202.7,128.35h18.9v3.54h-15.16v17.75h15.16v3.54h-18.9V128.35z M221.33,143.19h-12.34v-3.54h12.34V143.19z"
			/>
	</g>
</g>
</svg>
