<svg width="263" height="164" viewBox="0 0 263 164" fill="none" xmlns="http://www.w3.org/2000/svg">
<path d="M82.296 35.208C82.296 42.4613 80.4613 48.8187 76.792 54.28C73.1227 59.656 68.2587 63.7947 62.2 66.696C56.2267 69.5973 49.8267 71.048 43 71.048C36.1733 71.048 29.7733 69.64 23.8 66.824C17.8267 63.9227 13.0053 59.784 9.336 54.408C5.752 49.032 3.96 42.76 3.96 35.592C3.96 28.424 5.79467 22.1947 9.464 16.904C13.1333 11.528 17.9547 7.47466 23.928 4.744C29.9867 1.928 36.3867 0.519997 43.128 0.519997C50.04 0.519997 56.44 1.84266 62.328 4.488C68.3013 7.13333 73.1227 11.1013 76.792 16.392C80.4613 21.5973 82.296 27.8693 82.296 35.208ZM68.472 35.336C68.472 30.6427 67.2773 26.7173 64.888 23.56C62.4987 20.3173 59.384 17.928 55.544 16.392C51.704 14.856 47.5653 14.088 43.128 14.088C38.6907 14.088 34.5093 14.8987 30.584 16.52C26.744 18.056 23.6293 20.488 21.24 23.816C18.936 27.0587 17.784 31.0693 17.784 35.848C17.784 40.6267 18.9787 44.6373 21.368 47.88C23.7573 51.1227 26.872 53.5547 30.712 55.176C34.6373 56.7973 38.8187 57.608 43.256 57.608C47.5227 57.608 51.576 56.7547 55.416 55.048C59.3413 53.256 62.4987 50.696 64.888 47.368C67.2773 43.9547 68.472 39.944 68.472 35.336ZM154.866 48.776V2.696H168.05V69H154.866L118.002 25.864V69H104.818V12.552L98.29 2.696H114.802L154.866 48.776ZM253.391 55.688V69H198.735V2.696H250.959V15.88H211.791V32.008C214.436 30.472 217.423 29.448 220.751 28.936C224.079 28.424 228.004 28.168 232.527 28.168H242.255V41.352H232.527C226.639 41.352 222.458 41.608 219.983 42.12C217.508 42.5467 214.778 43.5707 211.791 45.192V55.688H253.391ZM50.424 97.696L65.528 146.336L83.32 97.696H97.4L74.104 164H56.312L47.992 137.76L41.208 164H23.672L0.76 97.696H14.968L32.12 146.336L40.824 114.976L35.448 97.696H50.424ZM173.141 150.688V164H118.485V97.696H170.709V110.88H131.541V127.008C134.186 125.472 137.173 124.448 140.501 123.936C143.829 123.424 147.754 123.168 152.277 123.168H162.005V136.352H152.277C146.389 136.352 142.208 136.608 139.733 137.12C137.258 137.547 134.528 138.571 131.541 140.192V150.688H173.141ZM262.366 143.264C262.366 149.749 260.275 154.827 256.094 158.496C251.913 162.165 246.153 164 238.814 164H198.11V97.696H238.814C242.398 97.696 245.726 98.5067 248.798 100.128C251.87 101.664 254.302 103.883 256.094 106.784C257.971 109.6 258.91 112.8 258.91 116.384C258.91 121.333 257.459 125.131 254.558 127.776C257.033 129.227 258.953 131.36 260.318 134.176C261.683 136.907 262.366 139.936 262.366 143.264ZM211.294 125.984C213.939 124.448 216.926 123.424 220.254 122.912C223.582 122.4 227.507 122.144 232.03 122.144H238.814C243.251 122.144 245.47 120.224 245.47 116.384C245.47 114.592 244.873 113.227 243.678 112.288C242.483 111.349 240.862 110.88 238.814 110.88H211.294V125.984ZM238.814 150.688C241.971 150.688 244.489 150.133 246.366 149.024C248.243 147.915 249.182 145.909 249.182 143.008C249.182 140.533 248.329 138.699 246.622 137.504C245.001 136.224 242.398 135.584 238.814 135.584H232.03C226.142 135.584 221.961 135.84 219.486 136.352C217.011 136.779 214.281 137.803 211.294 139.424V150.688H238.814Z" fill="white"/>
</svg>
